inDegrees=yes
name=ik_S40_A01_T01
DataType=double
version=3
OpenSimVersion=4.3-2021-08-27-4bc7ad9
endheader
time	pelvis_tilt	pelvis_list	pelvis_rotation	pelvis_tx	pelvis_ty	pelvis_tz	hip_flexion_r	hip_adduction_r	hip_rotation_r	knee_angle_r	knee_angle_r_beta	ankle_angle_r	subtalar_angle_r	mtp_angle_r	hip_flexion_l	hip_adduction_l	hip_rotation_l	knee_angle_l	knee_angle_l_beta	ankle_angle_l	subtalar_angle_l	mtp_angle_l	lumbar_extension	lumbar_bending	lumbar_rotation	arm_flex_r	arm_add_r	arm_rot_r	elbow_flex_r	pro_sup_r	wrist_flex_r	wrist_dev_r	arm_flex_l	arm_add_l	arm_rot_l	elbow_flex_l	pro_sup_l	wrist_flex_l	wrist_dev_l
0	0	0	0	0	0.9399999999999999	0	0	0	0	0	0	0	0	0	0	0	0	0	0	0	0	0	0	0	0	0	0	0	0	89.99999999963507	0	0	0	0	0	0	89.99999999869995	0	0
0.02	-1.529235573766696	2.630583115599736	-91.89496840296418	0	0.9399999999999999	0	1.163553908344991	-6.296218613242539	-8.131347296301145	-2.393049050987208	-0.04176658510145244	0	0	0	1.827579813479429	-7.576946827161049	-6.241381238311495	-2.009519804039335	-0.03507273696451765	0	0	0	0	0	0	2.016345713154553	-2.016345713154553	0.3590507065175725	9.960090680948058	89.64094931421398	0	0	2.016345713154553	-2.016345713154553	0.3590507065175725	9.960090680948058	89.64094931334623	0	0
0.04	-1.520573350194612	2.622269807427066	-91.91412045878369	0	0.9399999999999999	0	1.165923723429353	-6.303201539916236	-8.118365219190901	-2.365541002092141	-0.04128647907743392	0	0	0	1.82506970413502	-7.557700388066112	-6.237925886547183	-2.02984871884478	-0.03542754346123007	0	0	0	0	0	0	2.737077459874214	-2.737077459874214	0.490801589299333	12.60241203638829	89.50919843916293	0	0	2.737077459874214	-2.737077459874214	0.490801589299333	12.60241203638829	89.50919843831971	0	0
0.06	-1.529852178590543	2.617510679140548	-91.91845968145657	0	0.9399999999999999	0	1.164539671827416	-6.284109657362333	-8.106133229830077	-2.355752308552667	-0.04111563414570141	0	0	0	1.830331345158235	-7.565282857720139	-6.220173551965103	-2.019915615105603	-0.03525417809603928	0	0	0	0	0	0	3.454581130091375	-3.454581130091376	0.6204644688130868	14.86488104168495	89.37953556723704	0	0	3.454581130091375	-3.454581130091376	0.6204644688130868	14.86488104168495	89.37953556641801	0	0
0.08	-1.531893668629028	2.59895944021669	-91.93942502941101	0	0.9399999999999999	0	1.175086111928652	-6.284915638229976	-8.047453607313887	-2.330173838919018	-0.04066920563297285	0	0	0	1.804426194028958	-7.578946735584923	-6.216781627319403	-2.010075300011708	-0.03508243219821712	0	0	0	0	0	0	3.550209222226381	-3.550209222226382	0.6375416736940326	15.11719599081065	89.36245836335274	0	0	3.550209222226381	-3.550209222226382	0.6375416736940326	15.11719599081065	89.36245836253691	0	0
0.1	-1.541759077736239	2.612403042314468	-91.94601385651066	0	0.9399999999999999	0	1.200187045180492	-6.271844561265042	-8.05688530016632	-2.331051591668626	-0.04068452530847193	0	0	0	1.834974287588604	-7.597343549946002	-6.198433257740341	-2.047729878835875	-0.03573962857715057	0	0	0	0	0	0	4.055946728884679	-4.055946728884679	0.7284263682301365	16.84239500439303	89.27157367413068	0	0	4.055946728884679	-4.055946728884679	0.7284263682301365	16.84239500439303	89.27157367333184	0	0
0.12	-1.549727016245559	2.592073682167269	-91.96176472655159	0	0.9399999999999999	0	1.193424812127475	-6.255251194086569	-8.047873044129583	-2.324610674892317	-0.04057211010387841	0	0	0	1.798753607087954	-7.612780235535273	-6.215089832153775	-2.050777334959861	-0.03579281672032419	0	0	0	0	0	0	4.627474809522882	-4.627474809522882	0.8300687253929093	18.62956755253242	89.16993132289613	0	0	4.627474809522882	-4.627474809522882	0.8300687253929093	18.62956755253242	89.16993132211657	0	0
0.14	-1.54834394469895	2.60276579280878	-91.96388273306952	0	0.9399999999999999	0	1.212059263228753	-6.247235638990468	-8.031722113290998	-2.307876703192405	-0.04028004720077939	0	0	0	1.813631438668303	-7.614095839534416	-6.208105155252108	-2.050381668804344	-0.03578591104317171	0	0	0	0	0	0	4.718421922819878	-4.718421922819878	0.8461473684578531	18.89416373680001	89.15385268076797	0	0	4.718421922819878	-4.718421922819878	0.8461473684578531	18.89416373680001	89.15385267999136	0	0
0.16	-1.553830163416105	2.563958482569594	-91.96208441119884	0	0.9399999999999999	0	1.184681216132171	-6.224967596379448	-8.023036510605827	-2.298857678860393	-0.0401226355308683	0	0	0	1.782541263234441	-7.607837837494289	-6.228660813729299	-2.045614012070484	-0.03570269973556098	0	0	0	0	0	0	4.79318002584503	-4.793180025845029	0.859305048636962	19.10304655355193	89.14069500135442	0	0	4.79318002584503	-4.793180025845029	0.859305048636962	19.10304655355193	89.14069500058029	0	0
0.18	-1.569326249617205	2.58469664689584	-91.94191407480373	0	0.9399999999999999	0	1.273044874980521	-6.213719021433167	-8.036188612544214	-2.073448183437319	-0.03618849767047658	0	0	0	1.857560457432643	-7.637595026021704	-6.233365696910219	-1.841939244208737	-0.03214790443313836	0	0	0	0	0	0	5.269779678947072	-5.269779678947071	0.9437683330121756	20.68874362680825	89.05623172190398	0	0	5.269779678947072	-5.269779678947071	0.9437683330121756	20.68874362680825	89.05623172114568	0	0
0.2	-1.568842943914119	2.544710660226833	-91.94149720466946	0	0.9399999999999999	0	1.195044771239724	-6.208676339485611	-8.015902800899816	-2.27481780547717	-0.03970306058856851	0	0	0	1.765291062976487	-7.64558367030312	-6.237103557245186	-2.060292770606226	-0.0359588924021149	0	0	0	0	0	0	5.482476855149339	-5.482476855149338	0.9822425985111638	21.47934239447833	89.01775745865996	0	0	5.482476855149339	-5.482476855149338	0.9822425985111638	21.47934239447833	89.01775745790883	0	0
0.22	-1.56054695425944	2.544548450902606	-91.93742185408423	0	0.9399999999999999	0	1.202965703150503	-6.21020995782889	-8.020302458169192	-2.250930881748057	-0.03928615512132273	0	0	0	1.792745761069396	-7.653017874737986	-6.250208479230295	-2.037959494977108	-0.03556910320963137	0	0	0	0	0	0	5.583858221939545	-5.583858221939544	1.000062380600898	21.78984712509985	88.99993767760722	0	0	5.583858221939545	-5.583858221939544	1.000062380600898	21.78984712509985	88.99993767685945	0	0
0.24	-1.57926109064205	2.547353788820507	-91.93309115129043	0	0.9399999999999999	0	1.202778260499843	-6.184251635955992	-8.005669319176841	-2.322303937792245	-0.04053184994650425	0	0	0	1.80179876339514	-7.65615888468862	-6.219056877674913	-2.0981860267839	-0.03662025448671698	0	0	0	0	0	0	5.646028885703956	-5.646028885703954	1.01074610963348	21.94708573755867	88.98925394919283	0	0	5.646028885703956	-5.646028885703954	1.01074610963348	21.94708573755867	88.98925394844704	0	0
0.26	-1.582831430684442	2.550897954261298	-91.93568227602769	0	0.9399999999999999	0	1.260657465323702	-6.159642660416653	-8.006544326942196	-2.076764421672985	-0.03624637694646947	0	0	0	1.867836412388309	-7.67638205785944	-6.234845540817903	-1.828210268932742	-0.03190828861164735	0	0	0	0	0	0	6.130720051531735	-6.130720051531733	1.095707894360427	23.49053167962345	88.90429216940795	0	0	6.130720051531735	-6.130720051531733	1.095707894360427	23.49053167962345	88.90429216867804	0	0
0.28	-1.568338448689284	2.511855462031197	-91.89920539352539	0	0.9399999999999999	0	1.159208121936892	-6.158363905526241	-8.032692220101799	-2.286395021921373	-0.03990512113373589	0	0	0	1.790030648822146	-7.663955765620163	-6.189655425977051	-2.028771984078235	-0.03540875089438318	0	0	0	0	0	0	6.31582460211627	-6.31582460211627	1.128734546296372	24.14983816685537	88.87126551940166	0	0	6.31582460211627	-6.31582460211627	1.128734546296372	24.14983816685537	88.87126551867792	0	0
0.3	-1.561597638588435	2.558488111968703	-91.91952094954664	0	0.9399999999999999	0	1.272011051292298	-6.160176920808819	-7.983461660317769	-2.072496844057687	-0.03617189366599811	0	0	0	1.898801191843889	-7.658439360688374	-6.219954871328222	-1.802662824276794	-0.03146240158693002	0	0	0	0	0	0	6.780860747003204	-6.780860747003204	1.209165882195342	25.58513103445868	88.79083418816757	0	0	6.780860747003204	-6.780860747003204	1.209165882195342	25.58513103445868	88.79083418745887	0	0
0.32	-1.51788085299859	2.605691638855029	-91.95319781143108	0	0.9399999999999999	0	1.267670267170185	-6.188903098921247	-7.939517118235505	-2.293269246555585	-0.04002509898712459	0	0	0	1.913241057919931	-7.580400402394075	-6.178941765333177	-1.99895305379761	-0.03488831238156363	0	0	0	0	0	0	6.858368018162488	-6.858368018162488	1.22244241750657	25.80411400768362	88.77755765362446	0	0	6.858368018162488	-6.858368018162488	1.22244241750657	25.80411400768362	88.77755765291825	0	0
